<?xml version="1.0" encoding="UTF-8" standalone="no"?>
<!-- Created with Inkscape (http://www.inkscape.org/) -->

<svg
   width="210mm"
   height="297mm"
   viewBox="0 0 210 297"
   version="1.1"
   id="svg37234"
   inkscape:version="1.1 (c68e22c387, 2021-05-23)"
   sodipodi:docname="PhilcosaLogo1.svg"
   xmlns:inkscape="http://www.inkscape.org/namespaces/inkscape"
   xmlns:sodipodi="http://sodipodi.sourceforge.net/DTD/sodipodi-0.dtd"
   xmlns="http://www.w3.org/2000/svg"
   xmlns:svg="http://www.w3.org/2000/svg">
  <sodipodi:namedview
     id="namedview37236"
     pagecolor="#ffffff"
     bordercolor="#666666"
     borderopacity="1.0"
     inkscape:pageshadow="2"
     inkscape:pageopacity="0.0"
     inkscape:pagecheckerboard="0"
     inkscape:document-units="mm"
     showgrid="false"
     inkscape:zoom="0.99654638"
     inkscape:cx="497.2172"
     inkscape:cy="334.15404"
     inkscape:window-width="1920"
     inkscape:window-height="976"
     inkscape:window-x="1912"
     inkscape:window-y="-8"
     inkscape:window-maximized="1"
     inkscape:current-layer="layer1" />
  <defs
     id="defs37231">
    <inkscape:path-effect
       effect="powerstroke"
       id="path-effect37884"
       is_visible="true"
       lpeversion="1"
       offset_points="7,4.99214"
       not_jump="false"
       sort_points="true"
       interpolator_type="CubicBezierJohan"
       interpolator_beta="0.2"
       start_linecap_type="zerowidth"
       linejoin_type="extrp_arc"
       miter_limit="4"
       scale_width="1"
       end_linecap_type="zerowidth" />
    <inkscape:path-effect
       effect="powerstroke"
       id="path-effect37880"
       is_visible="true"
       lpeversion="1"
       offset_points="4,4.99214"
       not_jump="false"
       sort_points="true"
       interpolator_type="CubicBezierJohan"
       interpolator_beta="0.2"
       start_linecap_type="zerowidth"
       linejoin_type="extrp_arc"
       miter_limit="4"
       scale_width="1"
       end_linecap_type="zerowidth" />
  </defs>
  <g
     inkscape:label="Layer 1"
     inkscape:groupmode="layer"
     id="layer1">
    <path
       id="rect38026"
       style="fill-opacity:0.518072;stroke-width:0.138372"
       d="M 47.652973,88.373069 H 129.85609 V 119.09941 H 47.652973 Z" />
    <g
       aria-label="Philcosa"
       id="text39838"
       style="font-size:10.5833px;line-height:1.25;stroke-width:0.264583">
      <path
         d="m 58.937743,100.08891 q 0,0.5116 -0.180867,0.95085 -0.1757,0.43408 -0.496092,0.75447 -0.397908,0.39791 -0.940509,0.59944 -0.5426,0.19637 -1.369421,0.19637 h -1.02319 v 2.86804 h -1.02319 v -7.6946 h 2.087721 q 0.692462,0 1.173052,0.118856 0.480589,0.113687 0.852658,0.361733 0.439248,0.294555 0.676959,0.733804 0.242879,0.439248 0.242879,1.111037 z m -1.064531,0.0258 q 0,-0.397907 -0.139526,-0.692462 -0.139526,-0.294554 -0.423746,-0.480589 -0.248046,-0.160196 -0.568439,-0.227375 -0.315225,-0.07235 -0.800982,-0.07235 h -1.012855 v 3.074733 h 0.862994 q 0.620115,0 1.007687,-0.10852 0.387572,-0.11368 0.630451,-0.35656 0.242878,-0.24805 0.341063,-0.52193 0.103353,-0.27389 0.103353,-0.61495 z"
         id="path42860" />
      <path
         d="m 65.035542,105.45808 h -0.971514 v -3.28661 q 0,-0.39791 -0.04651,-0.74414 -0.04651,-0.3514 -0.170532,-0.54777 -0.129191,-0.21704 -0.372069,-0.32039 -0.242879,-0.10852 -0.630451,-0.10852 -0.397907,0 -0.831987,0.19637 -0.434081,0.19637 -0.831988,0.50126 v 4.3098 h -0.971514 v -8.040831 h 0.971514 v 2.909371 q 0.454751,-0.377234 0.940508,-0.589106 0.485757,-0.211873 0.997352,-0.211873 0.93534,0 1.426265,0.563269 0.490924,0.56327 0.490924,1.62264 z"
         id="path42862" />
      <path
         d="m 67.950084,98.719491 h -1.095537 v -1.007687 h 1.095537 z m -0.06201,6.738589 h -0.971514 v -5.772243 h 0.971514 z"
         id="path42864" />
      <path
         d="m 70.792278,105.45808 h -0.971514 v -8.040831 h 0.971514 z"
         id="path42866" />
      <path
         d="m 76.983096,105.09634 q -0.485757,0.23255 -0.925005,0.36174 -0.434081,0.12919 -0.925006,0.12919 -0.625283,0 -1.147213,-0.18087 -0.52193,-0.18603 -0.893999,-0.5581 -0.377237,-0.37207 -0.583942,-0.94051 -0.206705,-0.56844 -0.206705,-1.32808 0,-1.41593 0.775144,-2.22208 0.780312,-0.806151 2.056715,-0.806151 0.496092,0 0.971514,0.139526 0.480589,0.139526 0.878497,0.341065 v 1.08003 h -0.05168 q -0.444415,-0.34623 -0.919837,-0.53226 -0.470254,-0.18604 -0.919838,-0.18604 -0.82682,0 -1.307409,0.55811 -0.475422,0.55293 -0.475422,1.6278 0,1.04386 0.465086,1.60713 0.470255,0.5581 1.317745,0.5581 0.294555,0 0.599445,-0.0775 0.30489,-0.0775 0.547768,-0.20154 0.211873,-0.10852 0.397908,-0.22737 0.186034,-0.12403 0.294554,-0.21188 h 0.05168 z"
         id="path42868" />
      <path
         d="m 83.148074,102.57454 q 0,1.41076 -0.723468,2.22725 -0.723468,0.81648 -1.93786,0.81648 -1.224728,0 -1.948196,-0.81648 -0.7183,-0.81649 -0.7183,-2.22725 0,-1.41076 0.7183,-2.22725 0.723468,-0.821649 1.948196,-0.821649 1.214392,0 1.93786,0.821649 0.723468,0.81649 0.723468,2.22725 z m -1.00252,0 q 0,-1.12137 -0.439248,-1.66398 -0.439249,-0.54776 -1.21956,-0.54776 -0.790647,0 -1.229895,0.54776 -0.434081,0.54261 -0.434081,1.66398 0,1.0852 0.439248,1.64847 0.439249,0.55811 1.224728,0.55811 0.775144,0 1.214392,-0.55294 0.444416,-0.5581 0.444416,-1.65364 z"
         id="path42870" />
      <path
         d="m 88.77562,103.7941 q 0,0.79065 -0.656289,1.29707 -0.651121,0.50643 -1.782831,0.50643 -0.640786,0 -1.178219,-0.14986 -0.532265,-0.15503 -0.893999,-0.33589 v -1.09037 h 0.05168 q 0.459919,0.34623 1.02319,0.55293 0.563271,0.20154 1.080034,0.20154 0.640786,0 1.00252,-0.20671 0.361734,-0.2067 0.361734,-0.65112 0,-0.34106 -0.19637,-0.51676 -0.19637,-0.1757 -0.754474,-0.29972 -0.206705,-0.0465 -0.542601,-0.10852 -0.330728,-0.062 -0.604612,-0.13436 -0.759641,-0.20154 -1.080034,-0.58911 -0.315225,-0.39274 -0.315225,-0.96118 0,-0.35656 0.144693,-0.67179 0.149862,-0.31522 0.449584,-0.56327 0.289387,-0.242879 0.733803,-0.382405 0.449583,-0.144694 1.002519,-0.144694 0.516763,0 1.043861,0.129191 0.532266,0.124023 0.883664,0.30489 v 1.038698 h -0.05168 q -0.372069,-0.27389 -0.904335,-0.45992 -0.532265,-0.19121 -1.04386,-0.19121 -0.532266,0 -0.899167,0.20671 -0.366902,0.20154 -0.366902,0.60461 0,0.35657 0.222208,0.53743 0.21704,0.18087 0.702797,0.29456 0.268717,0.062 0.599445,0.12402 0.335896,0.062 0.558104,0.11369 0.676959,0.15503 1.04386,0.53227 0.366902,0.3824 0.366902,1.01285 z"
         id="path42872" />
      <path
         d="m 94.651213,105.45808 h -0.966347 v -0.61495 q -0.12919,0.0879 -0.351398,0.24804 -0.217041,0.15503 -0.423746,0.24805 -0.242878,0.11886 -0.558103,0.19637 -0.315226,0.0827 -0.738971,0.0827 -0.780312,0 -1.322912,-0.51676 -0.542601,-0.51676 -0.542601,-1.31774 0,-0.65629 0.279052,-1.05937 0.284219,-0.40824 0.806149,-0.64078 0.527098,-0.23255 1.266069,-0.31523 0.738971,-0.0827 1.586461,-0.12402 v -0.14986 q 0,-0.33073 -0.118855,-0.54777 -0.113688,-0.21704 -0.330728,-0.34107 -0.206705,-0.11885 -0.496092,-0.16019 -0.289387,-0.0413 -0.604613,-0.0413 -0.382404,0 -0.852658,0.10335 -0.470254,0.0982 -0.971514,0.28939 h -0.05168 v -0.98702 q 0.284219,-0.07751 0.821652,-0.170531 0.537434,-0.09302 1.059364,-0.09302 0.60978,0 1.059363,0.103353 0.454752,0.09819 0.78548,0.341063 0.32556,0.237713 0.496092,0.614943 0.170532,0.37724 0.170532,0.93535 z m -0.966347,-1.4211 v -1.60713 q -0.444416,0.0258 -1.049028,0.0775 -0.599445,0.0517 -0.950843,0.14986 -0.418578,0.11886 -0.676959,0.37207 -0.258382,0.24805 -0.258382,0.6873 0,0.49609 0.299723,0.7493 0.299722,0.24805 0.91467,0.24805 0.511595,0 0.93534,-0.19637 0.423745,-0.20154 0.785479,-0.48059 z"
         id="path42874" />
    </g>
    <path
       id="rect42160"
       style="fill:#ffffff;fill-opacity:0.518072;stroke-width:0.264583"
       d="M 96.872314,93.117569 H 123.53097 V 110.0139 H 96.872314 Z" />
    <path
       style="fill:none;stroke:#000000;stroke-width:0.264583px;stroke-linecap:butt;stroke-linejoin:miter;stroke-opacity:1"
       d="M 110.0139,95.839758 V 107.01011 Z"
       id="path42505" />
    <path
       id="path42606"
       style="fill:#ffffff;stroke:#000000;stroke-width:0.264583"
       d="m 98.762183,96.590706 a 0.0125032,0.0125032 0 0 1 -0.0125,0.0125 0.0125032,0.0125032 0 0 1 -0.0125,-0.0125 0.0125032,0.0125032 0 0 1 0.0125,-0.0125 0.0125032,0.0125032 0 0 1 0.0125,0.0125 z" />
    <path
       id="path42608"
       style="fill:#ffffff;stroke:#000000;stroke-width:0.264583"
       d="m 98.762183,96.590706 a 0.0125032,0.0125032 0 0 1 -0.0125,0.0125 0.0125032,0.0125032 0 0 1 -0.0125,-0.0125 0.0125032,0.0125032 0 0 1 0.0125,-0.0125 0.0125032,0.0125032 0 0 1 0.0125,0.0125 z" />
    <path
       style="fill:#000000;fill-opacity:0.518072;stroke-width:0.264583"
       id="path42734"
       d="m 98.275959,96.69233 c 0.976453,-0.05081 1.946981,0.08342 2.913911,0.199448 0.90534,0.129059 1.81638,0.183859 2.72999,0.189569 0.38006,-0.0054 0.76271,0.01069 1.14035,-0.04328 0.12506,-0.01786 0.31302,-0.06093 0.43685,-0.08779 0.30451,-0.07417 0.58971,-0.206041 0.89158,-0.289033 0.23226,-0.05864 0.473,-0.06105 0.71104,-0.06463 0.22111,-0.0011 0.44223,-1.22e-4 0.66335,7.94e-4 0,0 0.79674,-0.578462 0.79674,-0.578462 v 0 c -0.22169,-5.29e-4 -0.44336,-0.0028 -0.66505,-0.0013 -0.24195,0.0024 -0.48669,-7.7e-5 -0.72514,0.04588 -0.3094,0.07388 -0.5969,0.207499 -0.90052,0.299992 -0.004,7.94e-4 -0.43388,0.09756 -0.43447,0.09767 -0.37741,0.06759 -0.76153,0.05155 -1.14296,0.05967 -0.92174,0.0051 -1.84242,-0.0273 -2.75656,-0.156845 -0.95099,-0.113792 -1.90233,-0.259639 -2.86257,-0.250212 0,0 -0.796541,0.578721 -0.796541,0.578721 z" />
    <path
       style="fill:#000000;fill-opacity:0.518072;stroke-width:0.264583"
       id="path42736"
       d="m 99.288488,98.470428 c 1.012452,-0.119727 2.032732,-0.121711 3.050642,-0.124497 0.81587,0.02037 1.63027,-0.0093 2.4428,-0.08055 0.37798,-0.04094 0.75546,-0.06936 1.13526,-0.04631 0.14365,0.01146 0.28709,0.02527 0.43062,0.03816 0,0 0.79928,-0.570595 0.79928,-0.570595 v 0 c -0.14558,-0.01127 -0.29108,-0.02352 -0.43657,-0.03597 -0.38633,-0.02775 -0.77053,-0.01312 -1.15467,0.04097 -0.82362,0.0866 -1.64997,0.13367 -2.47873,0.117723 -0.99945,0.004 -1.99918,0.0055 -2.99695,0.07069 0,0 -0.791682,0.590368 -0.791682,0.590368 z" />
    <path
       style="fill:#000000;fill-opacity:0.518072;stroke-width:0.264583"
       id="path42738"
       d="m 98.545712,100.16592 c 1.05805,0.0304 2.116438,0.0413 3.174858,0.0494 1.2448,-0.006 2.48942,-0.0295 3.73416,-0.0428 0.42722,-0.003 0.85703,10e-4 1.27992,-0.0677 0.0354,-0.008 0.0707,-0.0163 0.10607,-0.0245 0,0 0.78199,-0.598935 0.78199,-0.598935 v 0 c -0.0351,0.01005 -0.0701,0.02011 -0.10522,0.03014 -0.42283,0.104489 -0.86626,0.08268 -1.298,0.102835 -1.25793,0.03996 -2.51622,0.07586 -3.7749,0.07614 -1.03392,-0.01582 -2.06977,-0.02334 -3.10109,-0.104288 0,0 -0.797788,0.579628 -0.797788,0.579628 z" />
    <path
       style="fill:#000000;fill-opacity:0.518072;stroke-width:0.264583"
       id="path42740"
       d="m 99.132627,101.94851 c 1.188483,-0.0253 2.377353,-0.0252 3.566053,-0.0263 0.93657,0.012 1.87247,-0.0155 2.80785,-0.0588 0,0 0.74287,-0.54601 0.74287,-0.54601 v 0 c -0.94157,0.06 -1.88403,0.0996 -2.8279,0.0797 -1.16454,-10e-4 -2.32927,-5.3e-4 -3.493581,-0.0263 0,0 -0.795292,0.57781 -0.795292,0.57781 z" />
    <path
       style="fill:#000000;fill-opacity:0.518072;stroke-width:0.264583"
       id="path42742"
       d="m 99.529629,103.3638 c 1.379341,0.0245 2.758281,0.0679 4.137411,0.10285 1.02429,0.0164 2.04874,0.008 3.07301,-0.005 0.37577,-0.007 0.75152,-0.0117 1.12735,-0.0121 0.196,0.0116 0.38723,-0.0155 0.57738,-0.0591 0,0 0.7803,-0.59697 0.7803,-0.59697 v 0 c -0.18613,0.0515 -0.37099,0.0979 -0.56663,0.0807 -0.3805,0.003 -0.76115,0.004 -1.14139,0.02 -1.04383,0.0376 -2.08828,0.0659 -3.13292,0.0541 -1.35303,-0.0319 -2.70637,-0.0721 -4.05736,-0.15438 0,0 -0.797151,0.56986 -0.797151,0.56986 z" />
    <path
       style="fill:#000000;fill-opacity:0.518072;stroke-width:0.264583"
       id="path42744"
       d="m 104.27826,101.74778 c 0.62923,-0.12016 1.27304,-0.13929 1.91165,-0.16323 0.57201,-0.0182 1.14435,-0.0167 1.71657,-0.0153 0.0544,2.6e-4 0.10888,5.3e-4 0.16333,7.9e-4 0,0 0.79068,-0.57452 0.79068,-0.57452 v 0 c -0.0554,2.6e-4 -0.11076,5.3e-4 -0.16614,0.001 -0.58037,0.004 -1.16065,0.017 -1.74089,0.0294 -0.63124,0.0178 -1.26392,0.0424 -1.89055,0.1251 0,0 -0.78465,0.59672 -0.78465,0.59672 z" />
    <path
       style="fill:#000000;fill-opacity:0.518072;stroke-width:0.264583"
       id="path42746"
       d="m 98.816413,105.13778 c 1.708067,-0.0534 3.416127,-0.0165 5.123747,0.0308 1.32232,0.0477 2.6455,0.092 3.968,0.0328 0.33003,-0.0182 0.17491,-0.009 0.4654,-0.0268 0,0 0.78187,-0.57678 0.78187,-0.57678 v 0 c -0.29957,0.0252 -0.13961,0.0121 -0.47991,0.0393 -1.34768,0.0937 -2.6984,0.0847 -4.04813,0.0352 -1.6738,-0.0482 -3.34752,-0.0885 -5.021921,-0.1077 0,0 -0.789056,0.57328 -0.789056,0.57328 z" />
    <path
       style="fill:#000000;fill-opacity:0.518072;stroke-width:0.264583"
       id="path42748"
       d="m 118.65716,96.922488 c -0.17855,-0.331232 -0.28277,-0.694266 -0.38339,-1.054843 -0.009,-0.05166 -0.0247,-0.102587 -0.0275,-0.154983 -0.006,-0.113717 0.008,-0.133262 0.10487,-0.193042 0.0491,-0.03036 0.20256,-0.10921 0.15577,-0.07545 -0.60683,0.437777 -0.87115,0.45249 -0.27992,0.328271 0.62018,-0.09309 1.26224,-0.108619 1.87579,0.03419 0.0666,0.02397 0.15746,0.04704 0.21476,0.09679 0.12383,0.107503 0.1446,0.471308 0.16986,0.614138 0.0858,0.689454 0.20911,1.372616 0.3188,2.058389 0.0792,0.423196 0.10989,0.84595 0.0812,1.274527 -0.0199,0.126699 -0.0486,0.251745 -0.0748,0.377225 0,0 0.88512,-0.42893 0.88512,-0.42893 v 0 c 0.0252,-0.128622 0.0526,-0.257106 0.0647,-0.387858 0.0207,-0.431913 -0.0322,-0.857353 -0.11364,-1.2818 -0.11675,-0.685599 -0.23719,-1.370277 -0.30958,-2.062477 -0.0298,-0.214411 -0.0201,-0.532186 -0.19339,-0.697135 -0.0685,-0.06524 -0.15892,-0.0848 -0.2446,-0.115268 -0.62361,-0.147889 -1.27872,-0.133552 -1.91166,-0.05743 -0.6914,0.110564 -0.31293,0.01643 -1.39239,0.599498 -0.24787,0.133887 -0.24312,0.294691 -0.17822,0.537271 0.10711,0.367686 0.21755,0.735603 0.38275,1.082329 0,0 0.85548,-0.493401 0.85548,-0.493401 z" />
    <path
       style="fill:#000000;fill-opacity:0.518072;stroke-width:0.264583"
       id="path42750"
       d="m 121.41193,99.303781 c -0.46611,0.0091 -0.93238,0.0083 -1.39856,0.0067 -0.26119,0.0096 -0.1362,0.0024 -0.37505,0.02029 0,0 -0.78465,0.58095 -0.78465,0.58095 v 0 c 0.24075,-0.0254 0.11484,-0.014 0.3778,-0.03316 0.46005,-0.0016 0.9202,-0.0026 1.38018,0.0067 0,0 0.80028,-0.581438 0.80028,-0.581438 z" />
    <path
       style="fill:#000000;fill-opacity:0.518072;stroke-width:0.264583"
       id="path42752"
       d="m 115.83621,98.302819 c 0.68424,0.07269 1.37115,-0.03419 2.04667,-0.136575 0.12941,-0.024 0.25881,-0.048 0.38822,-0.072 0,0 0.75442,-0.570216 0.75442,-0.570216 v 0 c -0.12959,0.02556 -0.25918,0.0511 -0.38877,0.07666 -0.6576,0.103397 -1.32863,0.209352 -1.99522,0.13888 0,0 -0.80532,0.563258 -0.80532,0.563258 z" />
    <path
       style="fill:#000000;fill-opacity:0.518072;stroke-width:0.264583"
       id="path42754"
       d="m 113.2161,98.882111 c 0.99292,0.285557 2.0246,0.393052 3.04952,0.491498 0.92713,0.08265 1.85511,0.176631 2.78666,0.180499 0.27562,-0.01654 0.14658,-0.0043 0.38741,-0.03352 0,0 0.78159,-0.585398 0.78159,-0.585398 v 0 c -0.24402,0.04181 -0.11307,0.02278 -0.39328,0.05411 -0.94138,0.02294 -1.87996,-0.06284 -2.81688,-0.146745 -1.00479,-0.09204 -2.02142,-0.188728 -2.98366,-0.510948 0,0 -0.81136,0.550505 -0.81136,0.550504 z" />
  </g>
</svg>
